<mxfile host="app.diagrams.net" modified="2023-11-14T18:36:20.256Z" agent="Mozilla/5.0 (Windows NT 10.0; Win64; x64) AppleWebKit/537.36 (KHTML, like Gecko) Chrome/116.0.5845.837 YaBrowser/23.9.4.837 Yowser/2.5 Safari/537.36" etag="szU9RClive8E1j0Q8X7t" version="22.1.0" type="device">
  <diagram name="Page-1" id="e7e014a7-5840-1c2e-5031-d8a46d1fe8dd">
    <mxGraphModel dx="1348" dy="691" grid="1" gridSize="10" guides="1" tooltips="1" connect="1" arrows="1" fold="1" page="1" pageScale="1" pageWidth="1169" pageHeight="826" background="none" math="0" shadow="0">
      <root>
        <mxCell id="0" />
        <mxCell id="1" parent="0" />
        <mxCell id="2" value="Пользователь" style="swimlane;whiteSpace=wrap;startSize=23;" parent="1" vertex="1">
          <mxGeometry x="170" y="128" width="274.5" height="582" as="geometry" />
        </mxCell>
        <mxCell id="aO0gE5eWsf8BDr5G1x6c-45" style="edgeStyle=orthogonalEdgeStyle;rounded=0;orthogonalLoop=1;jettySize=auto;html=1;exitX=0.5;exitY=1;exitDx=0;exitDy=0;entryX=0.5;entryY=0;entryDx=0;entryDy=0;" edge="1" parent="2" source="5" target="aO0gE5eWsf8BDr5G1x6c-42">
          <mxGeometry relative="1" as="geometry" />
        </mxCell>
        <mxCell id="aO0gE5eWsf8BDr5G1x6c-46" style="edgeStyle=orthogonalEdgeStyle;rounded=0;orthogonalLoop=1;jettySize=auto;html=1;exitX=0;exitY=0.5;exitDx=0;exitDy=0;entryX=0.5;entryY=0;entryDx=0;entryDy=0;" edge="1" parent="2" source="5" target="aO0gE5eWsf8BDr5G1x6c-44">
          <mxGeometry relative="1" as="geometry">
            <mxPoint x="50" y="55.117647058823536" as="targetPoint" />
          </mxGeometry>
        </mxCell>
        <mxCell id="5" value="" style="ellipse;shape=startState;fillColor=#000000;strokeColor=#ff0000;" parent="2" vertex="1">
          <mxGeometry x="120" y="40" width="30" height="30" as="geometry" />
        </mxCell>
        <mxCell id="aO0gE5eWsf8BDr5G1x6c-42" value="Авторизация" style="ellipse;whiteSpace=wrap;html=1;" vertex="1" parent="2">
          <mxGeometry x="80.75" y="152" width="108.5" height="58" as="geometry" />
        </mxCell>
        <mxCell id="aO0gE5eWsf8BDr5G1x6c-44" value="Регистрация" style="ellipse;whiteSpace=wrap;html=1;shadow=0;" vertex="1" parent="2">
          <mxGeometry y="93" width="110" height="59" as="geometry" />
        </mxCell>
        <mxCell id="3" value="Сотрудник" style="swimlane;whiteSpace=wrap" parent="1" vertex="1">
          <mxGeometry x="444.5" y="128" width="280" height="582" as="geometry" />
        </mxCell>
        <mxCell id="aO0gE5eWsf8BDr5G1x6c-66" value="Добавить товар" style="ellipse;whiteSpace=wrap;html=1;" vertex="1" parent="3">
          <mxGeometry x="5.5" y="201.5" width="104.5" height="60.5" as="geometry" />
        </mxCell>
        <mxCell id="aO0gE5eWsf8BDr5G1x6c-67" value="Редактировать товар" style="ellipse;whiteSpace=wrap;html=1;" vertex="1" parent="3">
          <mxGeometry x="165.5" y="203.5" width="104.5" height="58.5" as="geometry" />
        </mxCell>
        <mxCell id="aO0gE5eWsf8BDr5G1x6c-68" value="Удалить товар" style="ellipse;whiteSpace=wrap;html=1;" vertex="1" parent="3">
          <mxGeometry x="5.5" y="302" width="104.5" height="58" as="geometry" />
        </mxCell>
        <mxCell id="4" value="Администратор" style="swimlane;whiteSpace=wrap" parent="1" vertex="1">
          <mxGeometry x="724.5" y="128" width="280" height="582" as="geometry" />
        </mxCell>
        <mxCell id="aO0gE5eWsf8BDr5G1x6c-58" value="Добавить нового сотрудника" style="ellipse;whiteSpace=wrap;html=1;" vertex="1" parent="4">
          <mxGeometry x="15.5" y="202" width="104.5" height="60" as="geometry" />
        </mxCell>
        <mxCell id="aO0gE5eWsf8BDr5G1x6c-59" value="Редактировать информацию о сотрудниках" style="ellipse;whiteSpace=wrap;html=1;" vertex="1" parent="4">
          <mxGeometry x="155.5" y="312" width="104.5" height="58" as="geometry" />
        </mxCell>
        <mxCell id="aO0gE5eWsf8BDr5G1x6c-60" value="Удалить сотрудника" style="ellipse;whiteSpace=wrap;html=1;" vertex="1" parent="4">
          <mxGeometry x="155.5" y="202" width="104.5" height="60" as="geometry" />
        </mxCell>
        <mxCell id="aO0gE5eWsf8BDr5G1x6c-61" value="Просмотр товаров" style="ellipse;whiteSpace=wrap;html=1;" vertex="1" parent="4">
          <mxGeometry x="16.63" y="312" width="102.25" height="58" as="geometry" />
        </mxCell>
        <mxCell id="aO0gE5eWsf8BDr5G1x6c-41" value="&lt;font style=&quot;font-size: 14px;&quot;&gt;&lt;b&gt;Информационная система &quot;Складской комплекс&quot;&lt;/b&gt;&lt;/font&gt;" style="rounded=0;whiteSpace=wrap;html=1;" vertex="1" parent="1">
          <mxGeometry x="170" y="108.09" width="1120" height="19.91" as="geometry" />
        </mxCell>
        <mxCell id="aO0gE5eWsf8BDr5G1x6c-49" value="Система" style="swimlane;whiteSpace=wrap" vertex="1" parent="1">
          <mxGeometry x="1004.5" y="128" width="285.5" height="582" as="geometry" />
        </mxCell>
        <mxCell id="aO0gE5eWsf8BDr5G1x6c-53" style="edgeStyle=orthogonalEdgeStyle;rounded=0;orthogonalLoop=1;jettySize=auto;html=1;exitX=1;exitY=0.5;exitDx=0;exitDy=0;entryX=0.5;entryY=0;entryDx=0;entryDy=0;" edge="1" parent="aO0gE5eWsf8BDr5G1x6c-49" source="aO0gE5eWsf8BDr5G1x6c-50" target="aO0gE5eWsf8BDr5G1x6c-51">
          <mxGeometry relative="1" as="geometry" />
        </mxCell>
        <mxCell id="aO0gE5eWsf8BDr5G1x6c-50" value="Зарегистрировать" style="ellipse;whiteSpace=wrap;html=1;" vertex="1" parent="aO0gE5eWsf8BDr5G1x6c-49">
          <mxGeometry x="15.5" y="93" width="114.5" height="57" as="geometry" />
        </mxCell>
        <mxCell id="aO0gE5eWsf8BDr5G1x6c-51" value="Авторизировать" style="ellipse;whiteSpace=wrap;html=1;" vertex="1" parent="aO0gE5eWsf8BDr5G1x6c-49">
          <mxGeometry x="155.5" y="153" width="114.5" height="57" as="geometry" />
        </mxCell>
        <mxCell id="aO0gE5eWsf8BDr5G1x6c-56" value="" style="rhombus;whiteSpace=wrap;html=1;" vertex="1" parent="aO0gE5eWsf8BDr5G1x6c-49">
          <mxGeometry x="172.7458823529414" y="242" width="80" height="80" as="geometry" />
        </mxCell>
        <mxCell id="aO0gE5eWsf8BDr5G1x6c-55" style="edgeStyle=orthogonalEdgeStyle;rounded=0;orthogonalLoop=1;jettySize=auto;html=1;exitX=0.5;exitY=1;exitDx=0;exitDy=0;" edge="1" parent="aO0gE5eWsf8BDr5G1x6c-49" source="aO0gE5eWsf8BDr5G1x6c-51" target="aO0gE5eWsf8BDr5G1x6c-56">
          <mxGeometry relative="1" as="geometry">
            <mxPoint x="212.20588235294144" y="262" as="targetPoint" />
          </mxGeometry>
        </mxCell>
        <mxCell id="aO0gE5eWsf8BDr5G1x6c-85" style="edgeStyle=orthogonalEdgeStyle;rounded=0;orthogonalLoop=1;jettySize=auto;html=1;exitX=0.5;exitY=1;exitDx=0;exitDy=0;entryX=0.5;entryY=0;entryDx=0;entryDy=0;" edge="1" parent="aO0gE5eWsf8BDr5G1x6c-49" source="aO0gE5eWsf8BDr5G1x6c-72" target="aO0gE5eWsf8BDr5G1x6c-83">
          <mxGeometry relative="1" as="geometry">
            <Array as="points">
              <mxPoint x="88" y="542" />
              <mxPoint x="140" y="542" />
            </Array>
          </mxGeometry>
        </mxCell>
        <mxCell id="aO0gE5eWsf8BDr5G1x6c-72" value="Выполнение действия над сотрудником" style="ellipse;whiteSpace=wrap;html=1;" vertex="1" parent="aO0gE5eWsf8BDr5G1x6c-49">
          <mxGeometry x="35.5" y="392" width="104.5" height="58" as="geometry" />
        </mxCell>
        <mxCell id="aO0gE5eWsf8BDr5G1x6c-84" style="edgeStyle=orthogonalEdgeStyle;rounded=0;orthogonalLoop=1;jettySize=auto;html=1;exitX=0.5;exitY=1;exitDx=0;exitDy=0;entryX=0.5;entryY=0;entryDx=0;entryDy=0;" edge="1" parent="aO0gE5eWsf8BDr5G1x6c-49" source="aO0gE5eWsf8BDr5G1x6c-73" target="aO0gE5eWsf8BDr5G1x6c-83">
          <mxGeometry relative="1" as="geometry">
            <Array as="points">
              <mxPoint x="208" y="542" />
              <mxPoint x="140" y="542" />
            </Array>
          </mxGeometry>
        </mxCell>
        <mxCell id="aO0gE5eWsf8BDr5G1x6c-73" value="Добавление товара" style="ellipse;whiteSpace=wrap;html=1;" vertex="1" parent="aO0gE5eWsf8BDr5G1x6c-49">
          <mxGeometry x="155.5" y="462" width="104.5" height="58" as="geometry" />
        </mxCell>
        <mxCell id="aO0gE5eWsf8BDr5G1x6c-83" value="" style="ellipse;html=1;shape=endState;fillColor=#000000;strokeColor=#ff0000;" vertex="1" parent="aO0gE5eWsf8BDr5G1x6c-49">
          <mxGeometry x="125.5" y="552" width="30" height="30" as="geometry" />
        </mxCell>
        <mxCell id="aO0gE5eWsf8BDr5G1x6c-52" value="" style="endArrow=classic;html=1;rounded=0;exitX=1;exitY=0.5;exitDx=0;exitDy=0;entryX=0;entryY=0.5;entryDx=0;entryDy=0;" edge="1" parent="1" source="aO0gE5eWsf8BDr5G1x6c-44" target="aO0gE5eWsf8BDr5G1x6c-50">
          <mxGeometry width="50" height="50" relative="1" as="geometry">
            <mxPoint x="610" y="400" as="sourcePoint" />
            <mxPoint x="660" y="350" as="targetPoint" />
          </mxGeometry>
        </mxCell>
        <mxCell id="aO0gE5eWsf8BDr5G1x6c-54" style="edgeStyle=orthogonalEdgeStyle;rounded=0;orthogonalLoop=1;jettySize=auto;html=1;exitX=1;exitY=0.5;exitDx=0;exitDy=0;entryX=0;entryY=0.5;entryDx=0;entryDy=0;" edge="1" parent="1" source="aO0gE5eWsf8BDr5G1x6c-42" target="aO0gE5eWsf8BDr5G1x6c-51">
          <mxGeometry relative="1" as="geometry" />
        </mxCell>
        <mxCell id="aO0gE5eWsf8BDr5G1x6c-62" style="edgeStyle=orthogonalEdgeStyle;rounded=0;orthogonalLoop=1;jettySize=auto;html=1;exitX=0;exitY=0.5;exitDx=0;exitDy=0;entryX=0.5;entryY=1;entryDx=0;entryDy=0;" edge="1" parent="1" source="aO0gE5eWsf8BDr5G1x6c-56" target="aO0gE5eWsf8BDr5G1x6c-60">
          <mxGeometry relative="1" as="geometry" />
        </mxCell>
        <mxCell id="aO0gE5eWsf8BDr5G1x6c-63" style="edgeStyle=orthogonalEdgeStyle;rounded=0;orthogonalLoop=1;jettySize=auto;html=1;exitX=0;exitY=0.5;exitDx=0;exitDy=0;entryX=0.5;entryY=0;entryDx=0;entryDy=0;" edge="1" parent="1" source="aO0gE5eWsf8BDr5G1x6c-56" target="aO0gE5eWsf8BDr5G1x6c-61">
          <mxGeometry relative="1" as="geometry" />
        </mxCell>
        <mxCell id="aO0gE5eWsf8BDr5G1x6c-64" style="edgeStyle=orthogonalEdgeStyle;rounded=0;orthogonalLoop=1;jettySize=auto;html=1;exitX=0;exitY=0.5;exitDx=0;exitDy=0;entryX=0.5;entryY=1;entryDx=0;entryDy=0;" edge="1" parent="1" source="aO0gE5eWsf8BDr5G1x6c-56" target="aO0gE5eWsf8BDr5G1x6c-58">
          <mxGeometry relative="1" as="geometry" />
        </mxCell>
        <mxCell id="aO0gE5eWsf8BDr5G1x6c-65" style="edgeStyle=orthogonalEdgeStyle;rounded=0;orthogonalLoop=1;jettySize=auto;html=1;exitX=0;exitY=0.5;exitDx=0;exitDy=0;entryX=0.5;entryY=0;entryDx=0;entryDy=0;" edge="1" parent="1" source="aO0gE5eWsf8BDr5G1x6c-56" target="aO0gE5eWsf8BDr5G1x6c-59">
          <mxGeometry relative="1" as="geometry" />
        </mxCell>
        <mxCell id="aO0gE5eWsf8BDr5G1x6c-69" style="edgeStyle=orthogonalEdgeStyle;rounded=0;orthogonalLoop=1;jettySize=auto;html=1;exitX=0;exitY=0.5;exitDx=0;exitDy=0;entryX=0.5;entryY=1;entryDx=0;entryDy=0;" edge="1" parent="1" source="aO0gE5eWsf8BDr5G1x6c-56" target="aO0gE5eWsf8BDr5G1x6c-67">
          <mxGeometry relative="1" as="geometry" />
        </mxCell>
        <mxCell id="aO0gE5eWsf8BDr5G1x6c-70" style="edgeStyle=orthogonalEdgeStyle;rounded=0;orthogonalLoop=1;jettySize=auto;html=1;exitX=0;exitY=0.5;exitDx=0;exitDy=0;entryX=0.5;entryY=0;entryDx=0;entryDy=0;" edge="1" parent="1" source="aO0gE5eWsf8BDr5G1x6c-56" target="aO0gE5eWsf8BDr5G1x6c-68">
          <mxGeometry relative="1" as="geometry" />
        </mxCell>
        <mxCell id="aO0gE5eWsf8BDr5G1x6c-71" style="edgeStyle=orthogonalEdgeStyle;rounded=0;orthogonalLoop=1;jettySize=auto;html=1;exitX=0;exitY=0.5;exitDx=0;exitDy=0;entryX=0.5;entryY=1;entryDx=0;entryDy=0;" edge="1" parent="1" source="aO0gE5eWsf8BDr5G1x6c-56" target="aO0gE5eWsf8BDr5G1x6c-66">
          <mxGeometry relative="1" as="geometry" />
        </mxCell>
        <mxCell id="aO0gE5eWsf8BDr5G1x6c-74" style="edgeStyle=orthogonalEdgeStyle;rounded=0;orthogonalLoop=1;jettySize=auto;html=1;exitX=0.5;exitY=1;exitDx=0;exitDy=0;entryX=0.5;entryY=0;entryDx=0;entryDy=0;" edge="1" parent="1" source="aO0gE5eWsf8BDr5G1x6c-59" target="aO0gE5eWsf8BDr5G1x6c-72">
          <mxGeometry relative="1" as="geometry">
            <Array as="points">
              <mxPoint x="932" y="500" />
              <mxPoint x="1092" y="500" />
            </Array>
          </mxGeometry>
        </mxCell>
        <mxCell id="aO0gE5eWsf8BDr5G1x6c-76" style="edgeStyle=orthogonalEdgeStyle;rounded=0;orthogonalLoop=1;jettySize=auto;html=1;exitX=0.5;exitY=0;exitDx=0;exitDy=0;entryX=0.5;entryY=0;entryDx=0;entryDy=0;" edge="1" parent="1" source="aO0gE5eWsf8BDr5G1x6c-58" target="aO0gE5eWsf8BDr5G1x6c-72">
          <mxGeometry relative="1" as="geometry">
            <Array as="points">
              <mxPoint x="792" y="320" />
              <mxPoint x="1092" y="320" />
            </Array>
          </mxGeometry>
        </mxCell>
        <mxCell id="aO0gE5eWsf8BDr5G1x6c-77" style="edgeStyle=orthogonalEdgeStyle;rounded=0;orthogonalLoop=1;jettySize=auto;html=1;exitX=0.5;exitY=0;exitDx=0;exitDy=0;entryX=0.5;entryY=0;entryDx=0;entryDy=0;" edge="1" parent="1" source="aO0gE5eWsf8BDr5G1x6c-60" target="aO0gE5eWsf8BDr5G1x6c-72">
          <mxGeometry relative="1" as="geometry">
            <Array as="points">
              <mxPoint x="932" y="320" />
              <mxPoint x="1092" y="320" />
            </Array>
          </mxGeometry>
        </mxCell>
        <mxCell id="aO0gE5eWsf8BDr5G1x6c-78" style="edgeStyle=orthogonalEdgeStyle;rounded=0;orthogonalLoop=1;jettySize=auto;html=1;exitX=0.5;exitY=1;exitDx=0;exitDy=0;entryX=0;entryY=0.5;entryDx=0;entryDy=0;" edge="1" parent="1" source="aO0gE5eWsf8BDr5G1x6c-68" target="aO0gE5eWsf8BDr5G1x6c-73">
          <mxGeometry relative="1" as="geometry" />
        </mxCell>
        <mxCell id="aO0gE5eWsf8BDr5G1x6c-79" style="edgeStyle=orthogonalEdgeStyle;rounded=0;orthogonalLoop=1;jettySize=auto;html=1;exitX=0.5;exitY=1;exitDx=0;exitDy=0;entryX=0;entryY=0.5;entryDx=0;entryDy=0;" edge="1" parent="1" source="aO0gE5eWsf8BDr5G1x6c-67" target="aO0gE5eWsf8BDr5G1x6c-73">
          <mxGeometry relative="1" as="geometry">
            <mxPoint x="1119.9999999999995" y="630" as="targetPoint" />
          </mxGeometry>
        </mxCell>
        <mxCell id="aO0gE5eWsf8BDr5G1x6c-80" style="edgeStyle=orthogonalEdgeStyle;rounded=0;orthogonalLoop=1;jettySize=auto;html=1;exitX=0.5;exitY=1;exitDx=0;exitDy=0;entryX=0;entryY=0.5;entryDx=0;entryDy=0;" edge="1" parent="1" source="aO0gE5eWsf8BDr5G1x6c-66" target="aO0gE5eWsf8BDr5G1x6c-73">
          <mxGeometry relative="1" as="geometry">
            <mxPoint x="1159.9999999999995" y="620" as="targetPoint" />
            <Array as="points">
              <mxPoint x="450" y="390" />
              <mxPoint x="450" y="619" />
            </Array>
          </mxGeometry>
        </mxCell>
        <mxCell id="aO0gE5eWsf8BDr5G1x6c-81" style="edgeStyle=orthogonalEdgeStyle;rounded=0;orthogonalLoop=1;jettySize=auto;html=1;exitX=0.5;exitY=1;exitDx=0;exitDy=0;entryX=0;entryY=0.5;entryDx=0;entryDy=0;" edge="1" parent="1" source="aO0gE5eWsf8BDr5G1x6c-61" target="aO0gE5eWsf8BDr5G1x6c-73">
          <mxGeometry relative="1" as="geometry" />
        </mxCell>
      </root>
    </mxGraphModel>
  </diagram>
</mxfile>
